<?xml version="1.0" encoding="UTF-8"?><svg id="a" xmlns="http://www.w3.org/2000/svg" viewBox="0 0 781.01 141.88"><path d="M0,141.88V1.28h33.21l9.17,85.72L51.49,1.28h33.52v140.6h-19.95V40.58l-12.52,101.3h-19.58l-13.26-101.3v101.3H0Z"/><path d="M120.69,143.16c-8.72,0-15.38-3.4-19.98-10.19s-6.91-16.6-6.91-29.44V36.75c0-12.04,2.28-21.17,6.85-27.4,4.56-6.23,11.25-9.35,20.04-9.35s15.48,3.12,20.04,9.35c4.56,6.23,6.85,15.37,6.85,27.4v66.79c0,12.84-2.3,22.65-6.91,29.44-4.61,6.79-11.27,10.19-19.98,10.19ZM120.87,117.28c3.3,0,4.96-4.13,4.96-12.38V36.27c0-6.92-1.61-10.39-4.83-10.39-3.63,0-5.45,3.54-5.45,10.62v68.54c0,4.37.41,7.5,1.24,9.39.83,1.89,2.19,2.84,4.09,2.84Z"/><path d="M182.4,143.16c-8.71,0-15.38-3.4-19.98-10.19-4.61-6.79-6.91-16.6-6.91-29.44V36.75c0-12.04,2.28-21.17,6.85-27.4,4.56-6.23,11.25-9.35,20.04-9.35s15.48,3.12,20.04,9.35c4.56,6.23,6.85,15.37,6.85,27.4v66.79c0,12.84-2.3,22.65-6.91,29.44s-11.27,10.19-19.98,10.19ZM182.58,117.28c3.3,0,4.96-4.13,4.96-12.38V36.27c0-6.92-1.61-10.39-4.83-10.39-3.63,0-5.45,3.54-5.45,10.62v68.54c0,4.37.41,7.5,1.24,9.39.83,1.89,2.19,2.84,4.09,2.84Z"/><path d="M218.08,141.88V1.28h29.99c7.85,0,13.75,2.81,17.72,8.43,3.97,5.62,5.95,13.83,5.95,24.65v65.83c0,13.31-1.81,23.59-5.42,30.84-3.61,7.24-9.94,10.86-18.99,10.86h-29.24ZM240.02,117.04h3.78c4.01,0,6.01-2.5,6.01-7.51V36.99c0-4.69-.49-7.71-1.46-9.07-.97-1.36-2.94-2.04-5.92-2.04h-2.42v91.15Z"/><path d="M280.66,141.88V1.28h29.55c7.93,0,13.7,2.49,17.32,7.47,3.61,4.98,5.42,13.2,5.42,24.65v6.15c0,6.6-.92,11.96-2.76,16.06-1.84,4.1-4.64,6.79-8.39,8.07,4.91,1.6,8.21,5.34,9.88,11.22,1.67,5.89,2.51,13.06,2.51,21.53,0,9.11-.66,17.07-1.98,23.89-1.32,6.82-3.72,12.12-7.19,15.9-3.47,3.78-8.41,5.67-14.81,5.67h-29.55ZM301.97,54.24h4.46c2.02,0,3.32-1.01,3.9-3.04.58-2.02.87-4.45.87-7.27v-14.14c0-4.53-1.55-6.79-4.65-6.79h-4.58v31.24ZM304.14,117.12c5.66,0,8.49-3.46,8.49-10.39v-17.58c0-3.99-.46-7.15-1.39-9.47s-2.67-3.48-5.23-3.48h-4.03v40.74c.91.11,1.63.16,2.17.16Z"/><path d="M367.4,143.16c-8.72,0-15.38-3.4-19.98-10.19s-6.91-16.6-6.91-29.44V36.75c0-12.04,2.28-21.17,6.85-27.4,4.56-6.23,11.25-9.35,20.04-9.35s15.48,3.12,20.04,9.35c4.56,6.23,6.85,15.37,6.85,27.4v66.79c0,12.84-2.3,22.65-6.91,29.44-4.61,6.79-11.27,10.19-19.98,10.19ZM367.58,117.28c3.3,0,4.96-4.13,4.96-12.38V36.27c0-6.92-1.61-10.39-4.83-10.39-3.63,0-5.45,3.54-5.45,10.62v68.54c0,4.37.41,7.5,1.24,9.39.83,1.89,2.19,2.84,4.09,2.84Z"/><path d="M400.11,141.88L410.64,1.28h36.99l10.35,140.6h-20.63l-1.55-22.69h-13.13l-1.36,22.69h-21.19ZM424.21,96.74h9.91l-4.77-71.5h-.99l-4.15,71.5Z"/><path d="M464.67,141.88V1.28h33.46c5.58,0,9.79,1.64,12.64,4.91,2.85,3.28,4.76,7.86,5.73,13.74.97,5.89,1.46,12.8,1.46,20.73s-.75,13.79-2.26,18.37c-1.51,4.58-4.35,7.75-8.52,9.51,3.43.91,5.83,3.1,7.22,6.59,1.38,3.49,2.08,8,2.08,13.54v53.21h-21.5v-55.04c0-4.1-.65-6.64-1.95-7.63-1.3-.98-3.4-1.48-6.29-1.48v64.15h-22.06ZM486.85,53.37h5.27c3.02,0,4.52-4.23,4.52-12.7,0-5.48-.33-9.08-.99-10.79-.66-1.7-1.9-2.56-3.72-2.56h-5.08v26.04Z"/><path d="M525.13,141.88V1.28h29.99c7.85,0,13.75,2.81,17.72,8.43,3.96,5.62,5.95,13.83,5.95,24.65v65.83c0,13.31-1.81,23.59-5.42,30.84-3.61,7.24-9.94,10.86-18.99,10.86h-29.24ZM547.07,117.04h3.78c4.01,0,6.01-2.5,6.01-7.51V36.99c0-4.69-.49-7.71-1.46-9.07-.97-1.36-2.94-2.04-5.92-2.04h-2.42v91.15Z"/><path d="M617.45,141.88V1.28h21.81v116.64h22.43v23.97h-44.24Z"/><path d="M664.91,141.88L675.44,1.28h36.99l10.35,140.6h-20.63l-1.55-22.69h-13.13l-1.36,22.69h-21.19ZM689.01,96.74h9.91l-4.77-71.5h-.99l-4.15,71.5Z"/><path d="M729.46,141.88V1.28h29.55c7.93,0,13.7,2.49,17.32,7.47,3.61,4.98,5.42,13.2,5.42,24.65v6.15c0,6.6-.92,11.96-2.76,16.06-1.84,4.1-4.64,6.79-8.4,8.07,4.92,1.6,8.21,5.34,9.88,11.22,1.67,5.89,2.51,13.06,2.51,21.53,0,9.11-.66,17.07-1.98,23.89-1.32,6.82-3.72,12.12-7.19,15.9-3.47,3.78-8.41,5.67-14.81,5.67h-29.55ZM750.78,54.24h4.46c2.02,0,3.32-1.01,3.9-3.04.58-2.02.87-4.45.87-7.27v-14.14c0-4.53-1.55-6.79-4.65-6.79h-4.59v31.24ZM752.95,117.12c5.66,0,8.49-3.46,8.49-10.39v-17.58c0-3.99-.46-7.15-1.39-9.47-.93-2.32-2.68-3.48-5.24-3.48h-4.03v40.74c.91.11,1.63.16,2.17.16Z"/></svg>
